<svg id="Layer_1" data-name="Layer 1" xmlns="http://www.w3.org/2000/svg" xmlns:xlink="http://www.w3.org/1999/xlink" viewBox="0 0 27 27"><defs><style>.cls-1{fill:none;}.cls-2{fill:#fff;}.cls-3{clip-path:url(#clip-path);}.cls-4{fill:#9d9d9d;}</style><clipPath id="clip-path"><circle class="cls-1" cx="13.5" cy="13.5" r="12.5"/></clipPath></defs><title>camera-icon</title><circle class="cls-2" cx="13.5" cy="13.5" r="12.5"/><g class="cls-3"><path class="cls-4" d="M13.5,2A11.5,11.5,0,0,1,25,13.5h2A13.49,13.49,0,0,0,13.5,0ZM2,13.5A11.5,11.5,0,0,1,13.5,2V0A13.49,13.49,0,0,0,0,13.5ZM13.5,25A11.5,11.5,0,0,1,2,13.5H0A13.49,13.49,0,0,0,13.5,27ZM25,13.5A11.5,11.5,0,0,1,13.5,25v2A13.49,13.49,0,0,0,27,13.5Z"/></g><path class="cls-4" d="M19.25,11.74a.48.48,0,1,1,.35-.14A.52.52,0,0,1,19.25,11.74ZM14,17.2a3.52,3.52,0,1,1,2.47-1A3.46,3.46,0,0,1,14,17.2Zm5.6-7.7H17.92a.7.7,0,0,1-.34-.12.65.65,0,0,1-.21-.28l-.44-1.3a.65.65,0,0,0-.21-.28.7.7,0,0,0-.34-.12H11.62a.62.62,0,0,0-.55.4l-.44,1.3a.65.65,0,0,1-.21.28.7.7,0,0,1-.34.12H8.4A1.4,1.4,0,0,0,7,10.9v6.3a1.4,1.4,0,0,0,1.4,1.4H19.6A1.4,1.4,0,0,0,21,17.2V10.9A1.4,1.4,0,0,0,19.6,9.5ZM14,11.6a2,2,0,0,0-.8.16,2.17,2.17,0,0,0-1.14,1.14,2.08,2.08,0,0,0,0,1.6,2.17,2.17,0,0,0,1.14,1.14,2,2,0,0,0,.8.16,2.1,2.1,0,0,0,0-4.2Z"/></svg>