<svg id="Layer_1" data-name="Layer 1" xmlns="http://www.w3.org/2000/svg" viewBox="0 0 25 25"><defs><style>.cls-1{fill:#9d9d9d;}</style></defs><title>user-icon</title><path class="cls-1" d="M6.12,18.47a6.19,6.19,0,0,1,5.13-2.75h2.5a6.19,6.19,0,0,1,5.13,2.75,8.71,8.71,0,0,1-12.76,0ZM12.5,6.25A3.64,3.64,0,0,1,16.25,10a3.64,3.64,0,0,1-3.75,3.75A3.64,3.64,0,0,1,8.75,10,3.64,3.64,0,0,1,12.5,6.25ZM12.5,0A12.66,12.66,0,0,0,0,12.5,12.66,12.66,0,0,0,12.5,25,12.66,12.66,0,0,0,25,12.5,12.66,12.66,0,0,0,12.5,0Z"/></svg>