<svg id="Layer_1" data-name="Layer 1" xmlns="http://www.w3.org/2000/svg" viewBox="0 0 22.59 30.8"><defs><style>.cls-1{fill:#bababa;}</style></defs><title>join-icon</title><path class="cls-1" d="M16.32,7.67l-4-3.5-.9,1,4,3.5Zm-4,4.53,4-3.5-.9-1-4,3.5Zm0-8a.69.69,0,0,0-1,.06.68.68,0,0,0,.07,1Zm3.55,4,.45.51a.67.67,0,0,0,.24-.51.69.69,0,0,0-.24-.52Zm-4.45,3a.68.68,0,1,0,.9,1Z"/><path class="cls-1" d="M1.87,8.38h13V7h-13Zm13,0a.69.69,0,1,0,0-1.38ZM1.87,7a.69.69,0,1,0,0,1.38Z"/><path class="cls-1" d="M7.56,2.44V4.19H6.18V2.44ZM9.47,1.38a2.67,2.67,0,0,0-1.38.4c-.42.27-.53.52-.53.66H6.18A2.26,2.26,0,0,1,7.35.62,4.13,4.13,0,0,1,9.47,0Zm8.23,0H9.47V0H17.7Zm1.1.35a1.81,1.81,0,0,0-1.1-.35V0a3.15,3.15,0,0,1,2,.67Zm.38.71a.93.93,0,0,0-.38-.71L19.67.67a2.3,2.3,0,0,1,.89,1.77Zm0,10.5V2.44h1.38v10.5Zm-.38.7a.91.91,0,0,0,.38-.7h1.38a2.3,2.3,0,0,1-.89,1.77ZM17.7,14a1.75,1.75,0,0,0,1.1-.36l.87,1.07a3.15,3.15,0,0,1-2,.67ZM9,14H17.7v1.38H9Zm-1.1-.36A1.79,1.79,0,0,0,9,14v1.38a3.12,3.12,0,0,1-2-.67Zm-.37-.7a.93.93,0,0,0,.37.7l-.86,1.07a2.3,2.3,0,0,1-.89-1.77Zm0-1.75v1.75H6.18V11.19Zm0-7a.69.69,0,0,1-1.38,0ZM19.87,2.44h0Zm0,10.5h0ZM6.18,11.19a.69.69,0,0,1,1.38,0Z"/><path class="cls-1" d="M21,28.07a8.5,8.5,0,0,1,.43.76c.14.24.25.45.34.62h0c0-.27-.06-.54-.08-.8s0-.57,0-.9V22.6h.91v8.09h-1l-3.41-5.47c-.16-.25-.31-.5-.44-.75l-.33-.63h0a7.38,7.38,0,0,1,.07.81c0,.27,0,.56,0,.89v5.15H16.6V22.6h1Zm-6.37,2.62H13.7V22.6h.91Zm-6.06.11A3.73,3.73,0,0,1,7,30.48a3,3,0,0,1-1.12-.86,4.09,4.09,0,0,1-.66-1.32A6.68,6.68,0,0,1,5,26.64,6.52,6.52,0,0,1,5.18,25a3.9,3.9,0,0,1,.66-1.32A3,3,0,0,1,7,22.8a3.89,3.89,0,0,1,1.59-.31,3.9,3.9,0,0,1,1.6.31,3,3,0,0,1,1.12.88A3.53,3.53,0,0,1,11.91,25a5.71,5.71,0,0,1,.22,1.64,5.85,5.85,0,0,1-.22,1.66,3.69,3.69,0,0,1-.64,1.32,3,3,0,0,1-1.12.86A3.74,3.74,0,0,1,8.55,30.8Zm0-.76a2.81,2.81,0,0,0,1.17-.23,2.41,2.41,0,0,0,.84-.68,2.93,2.93,0,0,0,.49-1.07,5.58,5.58,0,0,0,.17-1.42,5.5,5.5,0,0,0-.17-1.41,2.93,2.93,0,0,0-.49-1.07,2.18,2.18,0,0,0-.84-.67,2.66,2.66,0,0,0-1.17-.24,2.69,2.69,0,0,0-1.17.24,2,2,0,0,0-.84.67A3.13,3.13,0,0,0,6,25.23a6,6,0,0,0-.15,1.41A6.13,6.13,0,0,0,6,28.06a3.13,3.13,0,0,0,.51,1.07,2.24,2.24,0,0,0,.84.68A2.84,2.84,0,0,0,8.55,30ZM3.47,28.38A2.68,2.68,0,0,1,3,30.21a1.91,1.91,0,0,1-1.52.57,3.4,3.4,0,0,1-.82-.08A2.59,2.59,0,0,1,0,30.46l.24-.77a1.67,1.67,0,0,0,.49.19,2.84,2.84,0,0,0,.69.08,1,1,0,0,0,.82-.35,1.87,1.87,0,0,0,.32-1.23V22.6h.91Z"/></svg>