<svg id="Layer_1" data-name="Layer 1" xmlns="http://www.w3.org/2000/svg" viewBox="0 0 32.3 26.83"><defs><style>.cls-1{fill:#bababa;}</style></defs><title>logout-icon</title><path class="cls-1" d="M30.45,21.31v5.44h-.69V21.31H27.91v-.64H32.3v.64Zm-5.64,5.52a3,3,0,0,1-.94-.14,1.82,1.82,0,0,1-.71-.46,2,2,0,0,1-.46-.79,3.34,3.34,0,0,1-.16-1.11V20.68h.69v3.66a2.1,2.1,0,0,0,.4,1.41,1.53,1.53,0,0,0,1.18.45A1.49,1.49,0,0,0,26,25.75a2,2,0,0,0,.42-1.41V20.68h.68v3.65a3.34,3.34,0,0,1-.16,1.11,2,2,0,0,1-.45.79,1.93,1.93,0,0,1-.72.46A3,3,0,0,1,24.81,26.83Zm-6.09,0a2.87,2.87,0,0,1-1.19-.23,2.26,2.26,0,0,1-.84-.65,2.89,2.89,0,0,1-.5-1A5,5,0,0,1,16,23.72a4.84,4.84,0,0,1,.15-1.24,2.89,2.89,0,0,1,.5-1,2.17,2.17,0,0,1,.84-.65,2.72,2.72,0,0,1,1.19-.24,2.76,2.76,0,0,1,1.2.24,2.17,2.17,0,0,1,.84.65,2.69,2.69,0,0,1,.48,1,4.42,4.42,0,0,1,.17,1.24A4.53,4.53,0,0,1,21.24,25a2.69,2.69,0,0,1-.48,1,2.26,2.26,0,0,1-.84.65A2.92,2.92,0,0,1,18.72,26.83Zm0-.57a2,2,0,0,0,.88-.17,1.73,1.73,0,0,0,.63-.51,2.36,2.36,0,0,0,.37-.8,4.29,4.29,0,0,0,.12-1.06,4.24,4.24,0,0,0-.12-1.06,2.42,2.42,0,0,0-.37-.81,1.61,1.61,0,0,0-.63-.5,2,2,0,0,0-.88-.18,2,2,0,0,0-.88.18,1.61,1.61,0,0,0-.63.5,2.43,2.43,0,0,0-.38.81,4.8,4.8,0,0,0-.11,1.06,4.86,4.86,0,0,0,.11,1.06,2.38,2.38,0,0,0,.38.8,1.73,1.73,0,0,0,.63.51A2,2,0,0,0,18.72,26.26Zm-5.49-5a2.87,2.87,0,0,0-1,.16,1.93,1.93,0,0,0-.72.46,2.26,2.26,0,0,0-.46.79,3.71,3.71,0,0,0-.16,1.11,3.54,3.54,0,0,0,.14,1,2.36,2.36,0,0,0,.38.78,1.77,1.77,0,0,0,.59.5,1.61,1.61,0,0,0,.76.18,1.72,1.72,0,0,0,.6-.1,1.36,1.36,0,0,0,.81-.77,1.85,1.85,0,0,0,.12-.69V24H13.08V23.4H15v3.35h-.53L14.34,26a1.83,1.83,0,0,1-.59.62,1.86,1.86,0,0,1-1,.24,2.38,2.38,0,0,1-1-.22,2.09,2.09,0,0,1-.79-.63,2.77,2.77,0,0,1-.49-1,4.49,4.49,0,0,1-.17-1.27,4,4,0,0,1,.2-1.33,2.58,2.58,0,0,1,.58-1,2.39,2.39,0,0,1,.93-.61,3.23,3.23,0,0,1,1.24-.22,3.57,3.57,0,0,1,.85.09,4,4,0,0,1,.67.23l-.17.57A2.43,2.43,0,0,0,14,21.3,3.38,3.38,0,0,0,13.23,21.22ZM6.74,26.83a2.87,2.87,0,0,1-1.19-.23A2.26,2.26,0,0,1,4.71,26a2.89,2.89,0,0,1-.5-1,5,5,0,0,1-.15-1.24,4.84,4.84,0,0,1,.15-1.24,2.89,2.89,0,0,1,.5-1,2.17,2.17,0,0,1,.84-.65,2.72,2.72,0,0,1,1.19-.24,2.76,2.76,0,0,1,1.2.24,2.17,2.17,0,0,1,.84.65,2.69,2.69,0,0,1,.48,1,4.42,4.42,0,0,1,.17,1.24A4.53,4.53,0,0,1,9.26,25a2.69,2.69,0,0,1-.48,1,2.26,2.26,0,0,1-.84.65A2.92,2.92,0,0,1,6.74,26.83Zm0-.57a2,2,0,0,0,.88-.17,1.73,1.73,0,0,0,.63-.51,2.36,2.36,0,0,0,.37-.8,4.29,4.29,0,0,0,.12-1.06,4.24,4.24,0,0,0-.12-1.06,2.42,2.42,0,0,0-.37-.81,1.61,1.61,0,0,0-.63-.5,2,2,0,0,0-.88-.18,2,2,0,0,0-.88.18,1.61,1.61,0,0,0-.63.5,2.43,2.43,0,0,0-.38.81,4.8,4.8,0,0,0-.11,1.06,4.86,4.86,0,0,0,.11,1.06,2.38,2.38,0,0,0,.38.8,1.73,1.73,0,0,0,.63.51A2,2,0,0,0,6.74,26.26ZM0,20.68H.68v5.44h2.9v.63H0Z"/><path class="cls-1" d="M18,2.33V4h1.38V2.33Zm-1.28-1a1.56,1.56,0,0,1,.9.33.81.81,0,0,1,.38.62h1.38a2.21,2.21,0,0,0-.91-1.7A2.92,2.92,0,0,0,16.76,0Zm-6.23,0h6.23V0H10.53Zm-.68.27a1,1,0,0,1,.68-.27V0A2.36,2.36,0,0,0,8.88.68Zm-.28.68a1,1,0,0,1,.28-.68l-1-1A2.32,2.32,0,0,0,8.2,2.33Zm0,9.84V2.33H8.2v9.84Zm.28.68a1,1,0,0,1-.28-.68H8.2a2.32,2.32,0,0,0,.68,1.65Zm.68.27a1,1,0,0,1-.68-.27l-1,1a2.36,2.36,0,0,0,1.65.68Zm6.56,0H10.53V14.5h6.56Zm.67-.27a1,1,0,0,1-.67.27V14.5a2.36,2.36,0,0,0,1.65-.68Zm.28-.68a1,1,0,0,1-.28.68l1,1a2.36,2.36,0,0,0,.68-1.65Zm0-1.64v1.64h1.38V10.53ZM18,4a.69.69,0,0,0,1.38,0ZM8.89,2.33h0Zm0,9.84h0Zm10.53-1.64a.69.69,0,1,0-1.38,0Z"/><path class="cls-1" d="M25.12,6.76,21.84,3.48l-1,1,3.28,3.29ZM21.84,11l3.28-3.28-1-1-3.28,3.29Zm0-7.54a.69.69,0,1,0-1,1Zm2.8,3.77.48.49a.69.69,0,0,0,0-1Zm-3.77,2.8a.69.69,0,0,0,1,1Z"/><path class="cls-1" d="M13.48,7.94H24V6.56H13.48Zm10.5,0a.69.69,0,1,0,0-1.38ZM13.48,6.56a.69.69,0,0,0,0,1.38Z"/></svg>